<svg width="512" height="512" viewBox="0 0 512 512" fill="none" xmlns="http://www.w3.org/2000/svg">
<path d="M306.717 452.376C306.717 452.376 280.677 466.056 279.477 469.176C278.277 472.296 278.277 477.816 278.277 477.816H402.717C403.513 477.816 404.276 477.5 404.838 476.937C405.401 476.375 405.717 475.612 405.717 474.816L402.837 452.376H361.437L352.677 459.096V452.376H306.717Z" fill="#2CA68F"/>
<path d="M407.878 452.876H361.437C361.307 452.876 361.182 452.825 361.089 452.735C360.995 452.644 360.941 452.521 360.937 452.391L356.369 296.019C354.117 305.575 348.249 330.173 346.772 333.423C345.55 336.164 351.529 397.998 357.021 450.117C357.058 450.465 357.021 450.818 356.913 451.151C356.804 451.484 356.627 451.791 356.392 452.051C356.158 452.311 355.871 452.519 355.551 452.661C355.231 452.803 354.884 452.877 354.534 452.876H306.717C306.589 452.876 306.467 452.828 306.374 452.74C306.281 452.653 306.225 452.533 306.217 452.406C306.157 451.365 300.101 348.187 300.457 334.643C300.815 321.038 320.83 265.77 321.682 263.423C321.704 263.361 321.739 263.305 321.783 263.256C321.828 263.208 321.881 263.169 321.941 263.141C322 263.113 322.065 263.097 322.13 263.094C322.196 263.091 322.261 263.102 322.323 263.124C322.385 263.146 322.441 263.181 322.49 263.225C322.538 263.27 322.577 263.323 322.605 263.383C322.633 263.442 322.649 263.507 322.652 263.572C322.655 263.638 322.644 263.703 322.622 263.765C322.414 264.338 301.811 321.226 301.457 334.669C301.114 347.702 306.741 444.239 307.189 451.876H354.534C354.744 451.876 354.952 451.832 355.144 451.747C355.336 451.662 355.508 451.537 355.648 451.381C355.789 451.225 355.895 451.042 355.961 450.842C356.026 450.642 356.048 450.431 356.026 450.222C353.226 423.641 344.215 336.632 345.862 333.009C347.621 329.139 356.184 292.433 356.27 292.063C356.297 291.944 356.367 291.84 356.466 291.769C356.565 291.698 356.686 291.666 356.807 291.678C356.928 291.69 357.041 291.746 357.123 291.835C357.206 291.924 357.254 292.04 357.257 292.162L361.922 451.876H407.878C408.085 451.877 408.291 451.835 408.481 451.753C408.671 451.67 408.841 451.548 408.982 451.396C409.122 451.246 409.23 451.068 409.297 450.874C409.365 450.68 409.391 450.474 409.374 450.269C407.991 432.159 395.857 272.342 395.857 238.056C395.857 237.923 395.91 237.796 396.003 237.702C396.097 237.609 396.224 237.556 396.357 237.556C396.49 237.556 396.617 237.609 396.711 237.702C396.804 237.796 396.857 237.923 396.857 238.056C396.857 272.306 408.987 432.086 410.371 450.193C410.397 450.536 410.352 450.881 410.238 451.205C410.124 451.53 409.945 451.827 409.711 452.079C409.477 452.331 409.193 452.532 408.878 452.669C408.562 452.806 408.222 452.877 407.878 452.876Z" fill="black"/>
<path d="M339.3 259.332L305.923 267.628C305.134 267.824 304.303 267.775 303.543 267.488C302.782 267.2 302.127 266.687 301.665 266.018L275.441 228.003C275.08 227.48 274.849 226.879 274.767 226.249C274.685 225.62 274.753 224.979 274.968 224.381C275.182 223.783 275.536 223.245 275.999 222.811C276.463 222.377 277.023 222.06 277.634 221.885L311.466 212.219C312.282 211.986 313.151 212.018 313.947 212.311C314.744 212.605 315.426 213.143 315.896 213.85L319.796 219.716C318.565 219.888 317.37 220.256 316.256 220.806C312.476 222.876 293.216 234.036 295.376 237.456C297.466 240.756 303.916 238.946 304.356 238.816C303.916 239.126 296.836 244.126 300.236 247.356C303.746 250.686 309.236 246.456 309.236 246.456C309.236 246.456 306.086 252.846 309.776 252.846C312.298 252.741 314.773 252.132 317.056 251.056C316.916 251.336 314.216 256.626 318.866 256.626C323.636 256.626 336.596 247.716 336.596 247.716C336.596 247.716 337.606 248.446 339.176 249.416L341.686 253.266C342.034 253.8 342.25 254.41 342.314 255.045C342.379 255.68 342.291 256.321 342.057 256.914C341.824 257.508 341.452 258.037 340.972 258.458C340.492 258.878 339.919 259.178 339.3 259.332Z" fill="#A0616A"/>
<path d="M318.867 257.126C318.33 257.186 317.786 257.103 317.292 256.884C316.797 256.665 316.37 256.319 316.053 255.881C315.043 254.244 316.219 251.611 316.604 250.843C316.663 250.723 316.767 250.632 316.894 250.589C317.02 250.546 317.158 250.555 317.278 250.614C317.337 250.643 317.389 250.683 317.432 250.732C317.475 250.781 317.508 250.838 317.529 250.899C317.55 250.961 317.559 251.027 317.555 251.092C317.55 251.157 317.533 251.221 317.504 251.279C316.857 252.571 316.316 254.404 316.904 255.355C317.137 255.642 317.44 255.863 317.784 255.998C318.128 256.133 318.501 256.177 318.867 256.126C323.427 256.126 336.185 247.393 336.313 247.304C336.398 247.246 336.499 247.215 336.603 247.216C336.706 247.218 336.806 247.251 336.89 247.311C336.9 247.318 337.906 248.043 339.44 248.991C342.003 250.607 346.857 253.421 350.609 254.125C356.139 255.158 370.333 248.218 370.476 248.147C370.595 248.089 370.732 248.08 370.858 248.123C370.984 248.165 371.087 248.256 371.145 248.376C371.204 248.495 371.213 248.632 371.17 248.758C371.127 248.883 371.036 248.987 370.917 249.045C370.323 249.337 356.283 256.212 350.424 255.107C346.51 254.373 341.53 251.491 338.91 249.839C338.124 249.355 337.351 248.85 336.592 248.325C334.599 249.675 323.392 257.126 318.867 257.126ZM276.147 194.028C276.019 194.028 275.895 193.979 275.803 193.89C275.71 193.802 275.654 193.681 275.648 193.553C275.478 190.137 264.046 185.221 259.742 183.371C259.076 183.084 258.512 182.841 258.092 182.652C253.587 180.427 249.557 177.349 246.224 173.589C242.109 168.976 240.837 163.782 242.018 161.617C242.11 161.425 242.244 161.255 242.409 161.121C242.575 160.986 242.768 160.89 242.975 160.839C243.979 160.619 245.201 161.519 247.06 162.882C248.65 164.093 250.319 165.195 252.058 166.181C256.291 168.505 259.398 167.861 261.839 164.154C262.278 163.532 262.581 162.825 262.728 162.078C262.875 161.33 262.862 160.561 262.691 159.819C261.991 156.824 258.791 153.644 253.184 150.368C243.571 144.751 238.948 140.082 239.441 136.488C239.461 136.34 239.518 136.199 239.607 136.079C239.695 135.958 239.813 135.862 239.948 135.798C242.869 134.316 264.752 144.807 270.056 147.686C277.27 151.603 287.718 165.724 288.16 166.323C288.239 166.43 288.272 166.564 288.252 166.695C288.232 166.826 288.16 166.944 288.053 167.023C287.947 167.101 287.813 167.134 287.682 167.114C287.55 167.094 287.433 167.023 287.354 166.916C287.248 166.771 276.597 152.376 269.578 148.564C260.491 143.631 241.946 135.613 240.391 136.695C240.134 138.792 242.192 142.788 253.689 149.505C259.542 152.925 262.899 156.318 263.665 159.591C263.87 160.465 263.887 161.372 263.717 162.253C263.546 163.135 263.191 163.97 262.675 164.704C259.927 168.878 256.297 169.647 251.576 167.058C249.799 166.051 248.093 164.925 246.468 163.688C245.008 162.617 243.741 161.692 243.192 161.816C243.147 161.826 243.028 161.852 242.895 162.096C242.007 163.724 242.929 168.393 246.97 172.923C250.208 176.58 254.124 179.574 258.502 181.74C258.919 181.928 259.477 182.168 260.137 182.452C268.607 186.094 276.47 189.954 276.647 193.502C276.65 193.568 276.641 193.633 276.619 193.695C276.597 193.757 276.563 193.814 276.519 193.863C276.475 193.911 276.421 193.951 276.362 193.979C276.303 194.007 276.239 194.024 276.173 194.027L276.147 194.028Z" fill="black"/>
<path d="M288.595 247.923H123.396C121.142 247.92 118.982 247.024 117.389 245.431C115.795 243.837 114.899 241.677 114.896 239.423V42.184C114.899 39.9305 115.795 37.77 117.389 36.1765C118.982 34.5831 121.142 33.6867 123.396 33.684H330.174C332.428 33.6867 334.588 34.5831 336.181 36.1765C337.775 37.77 338.671 39.9305 338.674 42.184V99.724C338.674 99.8566 338.621 99.9838 338.528 100.078C338.434 100.171 338.307 100.224 338.174 100.224C338.041 100.224 337.914 100.171 337.82 100.078C337.727 99.9838 337.674 99.8566 337.674 99.724V42.184C337.672 40.1955 336.881 38.2891 335.475 36.8831C334.069 35.477 332.162 34.6861 330.174 34.684H123.396C121.408 34.6861 119.501 35.477 118.095 36.8831C116.689 38.2891 115.898 40.1955 115.896 42.184V239.423C115.898 241.412 116.689 243.318 118.095 244.724C119.501 246.13 121.408 246.921 123.396 246.923H288.595C288.728 246.923 288.855 246.976 288.949 247.069C289.042 247.163 289.095 247.29 289.095 247.423C289.095 247.556 289.042 247.683 288.949 247.777C288.855 247.87 288.728 247.923 288.595 247.923Z" fill="black"/>
<path d="M398.037 229.42L399.957 238.06H388.917L376.277 248.81C375.839 249.181 375.329 249.457 374.778 249.621C374.228 249.785 373.65 249.832 373.08 249.761C372.51 249.689 371.962 249.5 371.469 249.206C370.976 248.911 370.55 248.518 370.217 248.05L350.517 220.3L329.157 219.34L333.457 189.58C333.457 189.58 316.617 205.96 310.677 208.3C306.257 210.04 288.287 203.81 279.377 200.5C278.027 200 276.93 198.987 276.325 197.681C275.72 196.375 275.656 194.883 276.147 193.53L284.767 169.77C285.05 168.992 285.507 168.288 286.102 167.713C286.697 167.137 287.416 166.705 288.204 166.448C288.991 166.192 289.827 166.118 290.647 166.233C291.467 166.348 292.25 166.648 292.937 167.11C299.607 171.591 309.797 178.26 310.917 177.94C312.467 177.49 335.547 158.63 339.737 156.19C348.277 188.75 361.057 144.71 361.057 144.71C382.697 157.55 406.437 202.3 408.837 210.46C411.237 218.62 398.037 229.42 398.037 229.42Z" fill="#FED44A"/>
<path d="M321.924 99.883C322.213 102.223 322.562 105.051 324.77 106.999C328.437 110.233 334.383 108.527 334.733 108.422C338.434 107.305 340.432 104.676 341.849 105.576C342.235 105.821 342.181 106.076 343.272 108.422C343.682 109.401 344.158 110.352 344.695 111.268C346.333 113.531 348.751 112.443 350.388 114.115C352.755 116.532 349.824 120.973 351.811 122.655C353.464 124.052 357.145 122.38 358.927 121.231C363.024 118.589 364.501 113.001 363.197 108.422C362.86 107.241 362.494 105.246 358.927 101.306C355.805 97.856 354.224 96.121 353.234 95.613C349.086 93.483 347.024 96.078 341.849 94.19C338.066 92.81 338.462 91.166 334.733 89.92C334.38 89.803 326.887 87.405 323.347 91.344C321.169 93.767 321.61 97.342 321.924 99.883Z" fill="black"/>
<path d="M337.74 148.698C334.554 148.702 331.43 147.816 328.72 146.139C312.105 135.85 323.374 106.255 323.49 105.957C323.511 105.893 323.546 105.834 323.591 105.783C323.636 105.733 323.691 105.692 323.752 105.663C323.813 105.635 323.88 105.619 323.947 105.616C324.015 105.614 324.082 105.626 324.145 105.65C324.208 105.675 324.266 105.712 324.314 105.759C324.362 105.806 324.4 105.863 324.426 105.926C324.452 105.988 324.465 106.055 324.464 106.123C324.463 106.19 324.448 106.257 324.421 106.319C324.309 106.609 313.337 135.437 329.246 145.289C332.29 147.119 335.845 147.917 339.379 147.563C342.914 147.21 346.24 145.723 348.861 143.326C350.245 142.084 351.337 140.55 352.059 138.836C352.081 138.772 352.116 138.714 352.162 138.664C352.207 138.614 352.262 138.574 352.324 138.546C352.385 138.518 352.451 138.502 352.519 138.501C352.586 138.499 352.654 138.511 352.716 138.536C352.779 138.561 352.836 138.599 352.884 138.646C352.932 138.694 352.969 138.751 352.995 138.813C353.02 138.876 353.032 138.943 353.031 139.01C353.03 139.078 353.015 139.144 352.987 139.206C352.211 141.058 351.035 142.714 349.543 144.057C346.337 147.042 342.12 148.7 337.74 148.698Z" fill="black"/>
<path d="M347.242 168.687H347.197C344.024 168.645 341.426 164.6 339.254 156.317C339.243 156.276 339.237 156.234 339.237 156.191C339.207 156.116 339.207 156.032 339.238 155.957C339.252 155.912 340.588 151.377 339.258 148.247C339.206 148.125 339.205 147.987 339.254 147.864C339.304 147.741 339.4 147.643 339.522 147.591C339.644 147.539 339.782 147.538 339.905 147.587C340.028 147.637 340.126 147.733 340.178 147.855C341.533 151.045 340.461 155.298 340.234 156.114C342.217 163.651 344.629 167.653 347.21 167.687H347.244C352.584 167.687 358.5 151.581 360.477 144.914C356.335 141.834 355.523 134.491 355.49 134.173C355.476 134.042 355.515 133.911 355.597 133.808C355.68 133.705 355.799 133.639 355.93 133.624C356.108 133.602 360.383 132.979 361.503 125.913C361.803 124.007 361.542 122.72 360.726 122.087C359.168 120.882 356.017 122.226 355.986 122.239C355.865 122.288 355.73 122.287 355.609 122.238C355.489 122.188 355.392 122.094 355.341 121.974C355.289 121.855 355.286 121.72 355.332 121.598C355.378 121.476 355.47 121.377 355.588 121.322C355.738 121.256 359.312 119.729 361.336 121.295C362.464 122.168 362.852 123.774 362.491 126.068C361.462 132.558 357.879 134.143 356.544 134.512C356.791 136.166 357.891 141.999 361.334 144.295C361.422 144.354 361.49 144.44 361.526 144.539C361.563 144.639 361.567 144.748 361.537 144.85C361.254 145.825 354.537 168.687 347.242 168.687Z" fill="black"/>
<path d="M339.714 148.054C341.137 151.394 339.714 156.099 339.714 156.099C339.714 156.099 352.523 150.435 352.523 139.021C351.774 140.803 350.64 142.398 349.202 143.691C346.592 146.11 343.28 147.636 339.746 148.051M328.656 129.02C328.194 129.072 327.726 129.009 327.295 128.835C326.864 128.661 326.483 128.382 326.186 128.024C325.744 127.3 326.331 125.588 327.493 122.371C328.437 119.762 329.505 116.806 329.382 115.382C329.374 115.215 329.327 115.052 329.244 114.907C329.162 114.762 329.046 114.638 328.907 114.545C327.686 113.686 324.572 114.251 323.475 114.542C323.347 114.576 323.21 114.558 323.096 114.491C322.981 114.424 322.898 114.315 322.864 114.186C322.83 114.058 322.848 113.922 322.915 113.807C322.981 113.692 323.091 113.609 323.219 113.575C323.669 113.456 327.661 112.448 329.482 113.726C329.74 113.904 329.954 114.137 330.109 114.409C330.264 114.68 330.356 114.984 330.378 115.296C330.521 116.938 329.46 119.873 328.434 122.711C327.774 124.536 326.871 127.035 327.048 127.518C327.433 128.146 329.065 128.057 329.794 127.914C329.922 127.894 330.052 127.924 330.158 127.998C330.264 128.072 330.337 128.184 330.363 128.31C330.388 128.437 330.363 128.569 330.293 128.677C330.224 128.786 330.115 128.864 329.989 128.894C329.55 128.977 329.103 129.019 328.656 129.02ZM339.713 116.48C339.595 116.48 339.481 116.437 339.391 116.36C338.764 115.762 337.974 115.364 337.121 115.215C336.268 115.066 335.389 115.174 334.597 115.524C334.481 115.581 334.347 115.591 334.223 115.551C334.1 115.511 333.997 115.424 333.936 115.31C333.875 115.196 333.861 115.062 333.897 114.937C333.932 114.813 334.015 114.707 334.127 114.642C335.095 114.195 336.175 114.047 337.228 114.217C338.281 114.388 339.259 114.868 340.037 115.598C340.115 115.664 340.171 115.753 340.197 115.852C340.223 115.951 340.218 116.056 340.183 116.152C340.147 116.248 340.083 116.331 339.999 116.389C339.915 116.448 339.815 116.479 339.713 116.479V116.48ZM331.168 137.116C330.918 137.116 330.756 137.102 330.73 137.1C330.598 137.088 330.476 137.024 330.391 136.922C330.307 136.82 330.266 136.688 330.278 136.556C330.29 136.424 330.354 136.302 330.456 136.217C330.558 136.133 330.69 136.092 330.822 136.104C330.843 136.105 333.072 136.29 334.129 135.063C334.437 134.619 334.634 134.106 334.701 133.57C334.769 133.033 334.706 132.488 334.518 131.981C334.5 131.916 334.495 131.849 334.504 131.783C334.513 131.716 334.535 131.652 334.569 131.594C334.602 131.537 334.648 131.486 334.701 131.446C334.755 131.406 334.816 131.377 334.881 131.361C334.946 131.346 335.014 131.343 335.08 131.354C335.146 131.364 335.209 131.388 335.266 131.424C335.323 131.46 335.372 131.506 335.41 131.561C335.448 131.616 335.475 131.678 335.489 131.744C335.722 132.405 335.789 133.114 335.683 133.807C335.578 134.5 335.303 135.157 334.884 135.719C334.393 136.193 333.81 136.562 333.171 136.802C332.532 137.042 331.85 137.149 331.168 137.116ZM354.796 131.148C354.669 131.148 354.547 131.1 354.454 131.012C354.361 130.925 354.305 130.806 354.297 130.68C354.289 130.553 354.33 130.428 354.411 130.33C354.492 130.232 354.607 130.168 354.733 130.152C354.755 130.149 356.972 129.849 357.738 128.422C357.943 127.922 358.024 127.379 357.974 126.84C357.925 126.302 357.745 125.783 357.452 125.329C357.398 125.211 357.393 125.076 357.436 124.954C357.48 124.831 357.57 124.731 357.687 124.673C357.803 124.616 357.938 124.606 358.061 124.646C358.185 124.686 358.288 124.773 358.349 124.888C358.719 125.483 358.938 126.161 358.984 126.861C359.031 127.56 358.904 128.261 358.616 128.9C357.603 130.78 354.97 131.13 354.859 131.145C354.838 131.147 354.817 131.148 354.796 131.148Z" fill="black"/>
<path d="M336.308 124.906C337.033 124.906 337.62 123.891 337.62 122.64C337.62 121.389 337.033 120.374 336.308 120.374C335.584 120.374 334.996 121.389 334.996 122.64C334.996 123.891 335.584 124.906 336.308 124.906Z" fill="black"/>
<path d="M324.66 123.319C325.385 123.319 325.972 122.304 325.972 121.053C325.972 119.802 325.385 118.787 324.66 118.787C323.935 118.787 323.348 119.802 323.348 121.053C323.348 122.304 323.935 123.319 324.66 123.319Z" fill="black"/>
<path d="M350.517 220.796C350.411 220.796 350.308 220.763 350.222 220.701C350.137 220.638 350.073 220.551 350.04 220.45C350.008 220.349 350.008 220.241 350.041 220.14C350.074 220.039 350.138 219.952 350.224 219.89L372.211 204.05C370.915 201.217 363.147 184.2 361.809 180.632C360.273 176.538 363.697 173.049 363.843 172.902C363.889 172.856 363.945 172.819 364.005 172.793C364.066 172.768 364.131 172.755 364.197 172.755C364.262 172.755 364.327 172.768 364.388 172.793C364.449 172.818 364.504 172.855 364.551 172.902C364.597 172.948 364.634 173.003 364.659 173.064C364.684 173.124 364.697 173.189 364.697 173.255C364.697 173.321 364.685 173.386 364.659 173.447C364.634 173.507 364.597 173.563 364.551 173.609C364.519 173.64 361.438 176.795 362.745 180.28C364.162 184.06 373.2 203.81 373.291 204.008C373.339 204.113 373.35 204.232 373.32 204.344C373.291 204.456 373.223 204.554 373.129 204.622L350.809 220.702C350.724 220.763 350.622 220.796 350.517 220.796ZM388.917 238.056L398.037 229.416L399.957 238.056H388.917ZM377.877 243.596C377.798 243.596 377.72 243.577 377.649 243.541C377.578 243.505 377.517 243.452 377.471 243.388L359.231 217.948C359.191 217.895 359.161 217.834 359.145 217.769C359.128 217.705 359.125 217.637 359.135 217.571C359.144 217.505 359.168 217.442 359.202 217.385C359.237 217.328 359.283 217.278 359.337 217.239C359.392 217.2 359.453 217.172 359.518 217.158C359.584 217.143 359.651 217.141 359.717 217.153C359.783 217.165 359.845 217.19 359.901 217.226C359.957 217.262 360.006 217.31 360.043 217.365L378.283 242.805C378.337 242.88 378.368 242.968 378.375 243.059C378.382 243.151 378.363 243.243 378.321 243.324C378.279 243.406 378.216 243.475 378.137 243.523C378.059 243.57 377.969 243.596 377.877 243.596ZM283.077 198.956C283.025 198.956 282.973 198.948 282.924 198.932C282.798 198.891 282.693 198.803 282.633 198.685C282.572 198.567 282.561 198.43 282.601 198.304L291.961 169.024C292.004 168.901 292.093 168.8 292.21 168.741C292.327 168.683 292.462 168.673 292.586 168.713C292.71 168.752 292.814 168.839 292.875 168.954C292.936 169.069 292.95 169.204 292.913 169.329L283.553 198.609C283.521 198.71 283.457 198.798 283.372 198.86C283.286 198.922 283.183 198.956 283.077 198.956ZM333.457 189.581L336.837 171.936L319.912 201.837L333.457 189.581Z" fill="black"/>
<path d="M364.407 185.498L359.637 213.726L372.837 204.216L364.407 185.498ZM249.764 165.887C249.656 165.887 249.551 165.853 249.465 165.788C249.378 165.724 249.315 165.633 249.284 165.53C247.517 159.588 247.566 155.11 249.431 152.22C249.862 151.511 250.433 150.899 251.111 150.42C251.788 149.942 252.557 149.608 253.369 149.44C253.501 149.422 253.634 149.457 253.74 149.537C253.845 149.617 253.915 149.736 253.933 149.867C253.951 149.998 253.917 150.132 253.836 150.237C253.756 150.343 253.638 150.413 253.506 150.431C252.832 150.581 252.196 150.867 251.637 151.272C251.078 151.677 250.608 152.192 250.256 152.786C248.596 155.385 248.591 159.693 250.243 165.245C250.265 165.32 250.27 165.398 250.256 165.475C250.242 165.552 250.211 165.624 250.164 165.686C250.118 165.749 250.057 165.799 249.987 165.834C249.918 165.869 249.841 165.887 249.763 165.887H249.764ZM257.383 168.469C257.283 168.469 257.185 168.439 257.102 168.383C257.02 168.327 256.956 168.247 256.919 168.154C256.881 168.061 256.873 167.959 256.895 167.862C256.916 167.764 256.966 167.675 257.039 167.606C257.083 167.561 257.715 166.854 256.924 165.029C256.167 163.279 255.545 159.06 256.656 157.654C256.797 157.463 256.989 157.316 257.21 157.23C257.431 157.145 257.672 157.123 257.905 157.169C258.674 157.337 259.411 157.623 260.092 158.017C260.986 158.587 262.024 158.892 263.084 158.896C263.216 158.895 263.344 158.945 263.439 159.036C263.535 159.126 263.592 159.251 263.597 159.383C263.599 159.449 263.588 159.514 263.564 159.575C263.541 159.637 263.505 159.693 263.46 159.74C263.415 159.788 263.361 159.826 263.301 159.853C263.24 159.88 263.176 159.894 263.11 159.896C261.883 159.885 260.682 159.543 259.633 158.906C259.041 158.56 258.399 158.306 257.73 158.154C257.675 158.14 257.617 158.144 257.565 158.166C257.513 158.188 257.469 158.226 257.44 158.274C256.722 159.184 257.066 162.841 257.842 164.632C258.949 167.187 257.77 168.294 257.719 168.34C257.627 168.423 257.507 168.469 257.383 168.469ZM309.777 253.346C309.403 253.377 309.027 253.306 308.689 253.141C308.351 252.977 308.064 252.724 307.857 252.41C307.117 251.22 307.632 249.17 308.148 247.752C306.19 248.852 302.573 250.262 299.893 247.719C299.524 247.394 299.236 246.987 299.051 246.531C298.865 246.075 298.789 245.583 298.826 245.092C299.044 242.092 303.232 238.997 304.069 238.407C304.178 238.331 304.312 238.3 304.443 238.323C304.573 238.346 304.69 238.42 304.766 238.528C304.842 238.636 304.873 238.771 304.85 238.902C304.827 239.032 304.754 239.149 304.645 239.225C304.171 239.559 300.013 242.561 299.823 245.165C299.798 245.508 299.853 245.852 299.984 246.17C300.116 246.487 300.32 246.77 300.581 246.994C303.735 249.986 308.879 246.1 308.932 246.06C309.022 245.991 309.132 245.954 309.245 245.956C309.358 245.957 309.467 245.997 309.554 246.069C309.642 246.14 309.703 246.239 309.726 246.35C309.75 246.46 309.736 246.576 309.686 246.677C308.965 248.141 308.062 250.848 308.706 251.882C308.777 251.997 308.995 252.346 309.776 252.346C312.212 252.246 314.603 251.659 316.809 250.62V250.621C316.905 250.566 317.016 250.543 317.125 250.557C317.235 250.57 317.337 250.62 317.416 250.697C317.463 250.743 317.5 250.797 317.525 250.857C317.551 250.917 317.564 250.982 317.565 251.047C317.565 251.112 317.552 251.177 317.528 251.238C317.503 251.298 317.466 251.353 317.42 251.399L317.41 251.409C317.368 251.451 317.318 251.486 317.264 251.511C314.917 252.618 312.371 253.242 309.777 253.346Z" fill="black"/>
<path d="M300.147 239.92C298.177 239.92 296.051 239.455 294.955 237.724C294.828 237.514 294.747 237.279 294.717 237.036C294.687 236.792 294.709 236.545 294.781 236.31C296.068 231.34 315.817 220.477 316.017 220.368C317.179 219.789 318.427 219.402 319.713 219.223C322.851 218.777 326.025 218.648 329.189 218.837C329.255 218.841 329.319 218.858 329.378 218.887C329.437 218.916 329.489 218.957 329.533 219.006C329.576 219.056 329.609 219.113 329.631 219.175C329.652 219.238 329.66 219.303 329.656 219.369C329.645 219.501 329.584 219.623 329.484 219.71C329.385 219.797 329.256 219.842 329.124 219.835C326.039 219.657 322.943 219.782 319.882 220.209C318.706 220.37 317.563 220.72 316.498 221.245C310.117 224.738 296.651 233.078 295.75 236.561C295.714 236.663 295.7 236.772 295.708 236.88C295.717 236.989 295.748 237.094 295.8 237.189C297.653 240.117 303.717 238.478 304.187 238.345C304.263 238.315 304.345 238.304 304.426 238.313C304.507 238.322 304.584 238.35 304.652 238.396C304.72 238.441 304.776 238.502 304.815 238.573C304.854 238.645 304.875 238.725 304.877 238.806C304.877 238.902 304.85 238.996 304.798 239.077C304.746 239.158 304.672 239.222 304.584 239.262C304.557 239.276 304.528 239.287 304.499 239.295C303.081 239.691 301.619 239.901 300.147 239.92Z" fill="black"/>
<path d="M304.377 239.306C304.269 239.306 304.164 239.271 304.078 239.206C303.992 239.141 303.929 239.05 303.898 238.947C303.868 238.843 303.872 238.733 303.91 238.632C303.947 238.531 304.016 238.445 304.107 238.386L319.527 228.516C319.582 228.476 319.645 228.448 319.711 228.434C319.777 228.419 319.846 228.418 319.912 228.43C319.979 228.443 320.043 228.469 320.099 228.507C320.155 228.545 320.203 228.594 320.24 228.651C320.276 228.708 320.301 228.772 320.312 228.839C320.324 228.906 320.321 228.975 320.305 229.041C320.289 229.107 320.259 229.169 320.218 229.223C320.177 229.277 320.126 229.322 320.067 229.356L304.647 239.227C304.567 239.279 304.473 239.307 304.377 239.307V239.306ZM309.237 246.956C309.132 246.956 309.03 246.923 308.946 246.862C308.861 246.801 308.797 246.715 308.763 246.616C308.73 246.517 308.728 246.41 308.759 246.31C308.789 246.21 308.85 246.123 308.933 246.059L322.733 235.499C322.839 235.424 322.969 235.392 323.098 235.412C323.226 235.431 323.342 235.499 323.42 235.602C323.499 235.706 323.535 235.835 323.52 235.964C323.505 236.093 323.44 236.211 323.34 236.293L309.54 246.853C309.453 246.92 309.346 246.956 309.237 246.956ZM317.067 251.546C316.963 251.546 316.861 251.514 316.776 251.453C316.692 251.393 316.628 251.307 316.594 251.209C316.56 251.11 316.558 251.004 316.587 250.904C316.617 250.804 316.677 250.716 316.759 250.652L326.929 242.702C326.981 242.662 327.04 242.632 327.103 242.614C327.166 242.597 327.233 242.592 327.298 242.6C327.363 242.608 327.426 242.628 327.483 242.661C327.54 242.693 327.59 242.736 327.631 242.788C327.671 242.84 327.701 242.899 327.719 242.962C327.736 243.025 327.741 243.092 327.733 243.157C327.725 243.222 327.705 243.285 327.672 243.342C327.64 243.399 327.597 243.45 327.545 243.49L317.375 251.44C317.287 251.509 317.179 251.546 317.067 251.546ZM398.739 444.956H368.757C368.624 444.956 368.497 444.903 368.403 444.81C368.31 444.716 368.257 444.589 368.257 444.456C368.257 444.323 368.31 444.196 368.403 444.102C368.497 444.009 368.624 443.956 368.757 443.956H398.739C399.381 443.957 400.016 443.821 400.601 443.556C401.185 443.29 401.707 442.903 402.129 442.42C402.552 441.936 402.866 441.368 403.05 440.753C403.234 440.138 403.284 439.49 403.197 438.854C393.938 371.815 392.035 240.135 392.017 238.813C392.016 238.747 392.028 238.682 392.052 238.621C392.077 238.56 392.113 238.504 392.158 238.457C392.204 238.41 392.259 238.373 392.319 238.347C392.379 238.321 392.444 238.307 392.51 238.306H392.517C392.648 238.306 392.774 238.358 392.868 238.45C392.962 238.542 393.015 238.668 393.017 238.799C393.035 240.121 394.937 371.739 404.187 438.717C404.294 439.495 404.233 440.286 404.008 441.038C403.783 441.791 403.399 442.486 402.883 443.077C402.367 443.668 401.73 444.142 401.015 444.466C400.3 444.791 399.524 444.958 398.739 444.957V444.956ZM357.207 291.861V260.541L350.967 317.753L357.207 291.861ZM342.319 444.956H316.137C316.004 444.956 315.877 444.903 315.783 444.81C315.69 444.716 315.637 444.589 315.637 444.456C315.637 444.323 315.69 444.196 315.783 444.102C315.877 444.009 316.004 443.956 316.137 443.956H342.319C342.949 443.957 343.573 443.825 344.149 443.569C344.725 443.314 345.241 442.939 345.663 442.471C346.085 442.003 346.404 441.451 346.599 440.851C346.794 440.252 346.86 439.618 346.794 438.991C344.444 416.794 336.746 343.771 336.337 336.002C335.858 326.894 349.894 283.887 350.492 282.061C350.511 281.997 350.543 281.937 350.585 281.886C350.627 281.834 350.68 281.791 350.739 281.76C350.798 281.729 350.863 281.711 350.93 281.705C350.996 281.699 351.063 281.707 351.127 281.728C351.19 281.749 351.249 281.782 351.299 281.826C351.35 281.87 351.391 281.923 351.42 281.983C351.45 282.044 351.467 282.109 351.47 282.176C351.474 282.242 351.464 282.309 351.442 282.372C351.296 282.817 336.867 327.026 337.336 335.95C337.743 343.694 345.439 416.696 347.789 438.885C347.87 439.651 347.789 440.426 347.551 441.159C347.312 441.892 346.923 442.567 346.407 443.14C345.891 443.712 345.26 444.17 344.556 444.483C343.852 444.796 343.09 444.957 342.319 444.956ZM320.997 477.816C320.997 477.816 320.037 468.456 323.397 466.056C326.757 463.656 352.677 456.936 352.677 456.936V459.606C352.677 459.606 334.229 466.776 332.549 468.456C330.869 470.136 331.077 477.816 331.077 477.816H320.997ZM363.956 461.636C363.845 461.636 363.737 461.599 363.649 461.531C360.886 459.551 357.578 458.477 354.179 458.456C354.113 458.46 354.046 458.451 353.984 458.428C353.922 458.406 353.865 458.371 353.816 458.325C353.768 458.28 353.73 458.225 353.703 458.165C353.677 458.104 353.663 458.038 353.663 457.972C353.659 457.84 353.707 457.711 353.798 457.615C353.889 457.518 354.014 457.461 354.146 457.457C357.782 457.448 361.326 458.599 364.264 460.742C364.346 460.806 364.406 460.894 364.435 460.994C364.465 461.094 364.463 461.2 364.429 461.299C364.395 461.397 364.331 461.483 364.246 461.543C364.162 461.604 364.06 461.636 363.956 461.636ZM367.712 459.027C367.601 459.027 367.492 458.99 367.405 458.921C364.642 456.941 361.334 455.867 357.935 455.847C357.869 455.85 357.803 455.84 357.741 455.817C357.679 455.795 357.622 455.76 357.574 455.714C357.526 455.669 357.488 455.615 357.461 455.555C357.434 455.494 357.42 455.429 357.419 455.363C357.415 455.231 357.463 455.102 357.554 455.006C357.645 454.909 357.77 454.852 357.902 454.848C361.538 454.837 365.083 455.987 368.02 458.132C368.102 458.196 368.163 458.284 368.193 458.384C368.222 458.484 368.22 458.591 368.186 458.69C368.152 458.788 368.088 458.874 368.003 458.934C367.918 458.995 367.816 459.027 367.712 459.027ZM306.172 461.636C306.061 461.636 305.953 461.599 305.865 461.531C303.102 459.551 299.794 458.476 296.395 458.456C296.329 458.459 296.263 458.449 296.201 458.426C296.139 458.404 296.082 458.369 296.034 458.323C295.986 458.278 295.948 458.224 295.921 458.164C295.894 458.103 295.88 458.038 295.879 457.972C295.875 457.84 295.923 457.711 296.014 457.615C296.105 457.518 296.23 457.461 296.362 457.457C299.998 457.448 303.542 458.599 306.479 460.742C306.561 460.806 306.621 460.894 306.65 460.994C306.68 461.094 306.678 461.2 306.644 461.298C306.61 461.397 306.547 461.482 306.462 461.543C306.377 461.603 306.276 461.636 306.172 461.636ZM311.069 459.027C310.958 459.027 310.849 458.99 310.762 458.921C307.999 456.941 304.691 455.867 301.292 455.847C301.226 455.851 301.16 455.841 301.097 455.819C301.035 455.796 300.978 455.761 300.93 455.716C300.881 455.671 300.843 455.616 300.816 455.555C300.79 455.495 300.776 455.429 300.776 455.363C300.772 455.231 300.82 455.102 300.911 455.006C301.002 454.909 301.127 454.852 301.259 454.848C304.895 454.837 308.439 455.988 311.376 458.132C311.458 458.196 311.519 458.284 311.548 458.384C311.578 458.484 311.576 458.591 311.542 458.689C311.508 458.788 311.445 458.873 311.36 458.934C311.275 458.995 311.173 459.027 311.069 459.027Z" fill="black"/>
<path d="M154.678 127.911C154.742 128.09 154.86 128.246 155.016 128.355C155.172 128.465 155.358 128.524 155.548 128.524H159.462C159.653 128.524 159.838 128.465 159.994 128.355C160.15 128.245 160.268 128.09 160.333 127.911L160.625 126.902H154.384L154.678 127.911Z" fill="#2A448F"/>
<path d="M164.989 114.038C166.374 112.575 167.299 110.738 167.651 108.754C168.002 106.77 167.765 104.727 166.967 102.877C166.17 101.027 164.847 99.4516 163.164 98.3453C161.48 97.2391 159.509 96.6507 157.494 96.653C155.48 96.6553 153.51 97.2481 151.829 98.3582C150.148 99.4683 148.829 101.047 148.035 102.899C147.242 104.75 147.009 106.794 147.365 108.777C147.721 110.76 148.651 112.595 150.039 114.055C151.667 115.727 152.589 117.961 152.612 120.295V120.515H154.797V119.741C154.797 119.373 154.943 119.02 155.203 118.76C155.463 118.5 155.816 118.354 156.184 118.354H158.827C159.195 118.354 159.548 118.5 159.808 118.76C160.068 119.02 160.214 119.373 160.214 119.741V120.515H162.399V120.296C162.427 117.955 163.354 115.714 164.989 114.038Z" fill="#FED44A"/>
<path d="M162.405 121.627V120.515H152.605V125.277L152.695 125.788C152.801 126.111 153.007 126.393 153.282 126.593C153.558 126.793 153.89 126.901 154.23 126.902H160.78C161.12 126.901 161.452 126.793 161.728 126.593C162.003 126.393 162.209 126.111 162.315 125.788L162.405 124.127V121.627Z" fill="#2CA68F"/>
<path d="M157.505 87.885C157.854 88.845 158.023 89.8608 158.005 90.882C158.026 91.9037 157.856 92.9203 157.505 93.88C157.154 92.9203 156.984 91.9037 157.005 90.882C156.986 89.8605 157.156 88.8453 157.505 87.885ZM169.725 99.724C170.285 98.8753 170.997 98.1373 171.825 97.547C172.63 96.9251 173.544 96.4591 174.521 96.173C173.962 97.023 173.25 97.7613 172.421 98.35C171.614 98.97 170.7 99.4358 169.725 99.724ZM143.295 99.724C142.32 99.4357 141.406 98.9699 140.6 98.35C139.77 97.7615 139.058 97.0232 138.499 96.173C139.475 96.4592 140.389 96.9252 141.194 97.547C142.022 98.1372 142.735 98.8753 143.295 99.724ZM143.295 111.317C142.504 111.957 141.603 112.445 140.635 112.758C139.679 113.108 138.667 113.276 137.65 113.254C138.439 112.612 139.341 112.124 140.31 111.813C141.266 111.465 142.278 111.297 143.295 111.317ZM171.111 111.317C172.128 111.297 173.14 111.465 174.096 111.813C175.065 112.124 175.967 112.612 176.756 113.254C175.739 113.276 174.727 113.108 173.772 112.758C172.804 112.445 171.902 111.957 171.112 111.317H171.111ZM190.44 134.597C189.031 135.948 187.712 137.39 186.492 138.914C185.258 140.416 184.12 141.993 183.085 143.638C180.97 146.881 179.371 150.432 178.344 154.164C177.817 156.017 177.474 157.917 177.318 159.837C177.179 161.76 177.216 163.691 177.428 165.607C177.643 167.532 178.048 169.431 178.637 171.277C179.207 173.142 179.914 174.964 180.75 176.726C178.684 173.355 177.297 169.613 176.666 165.71C176.087 161.767 176.33 157.747 177.38 153.902C178.468 150.085 180.18 146.474 182.446 143.216C184.663 139.958 187.358 137.052 190.44 134.596V134.597Z" fill="black"/>
<path d="M173.027 172.755C173.732 172.972 174.409 173.245 175.099 173.494C175.779 173.761 176.454 174.039 177.123 174.329C178.459 174.912 179.777 175.531 181.078 176.186L180.385 176.491C181.089 174.045 181.956 171.649 182.981 169.32C182.599 171.836 182.049 174.324 181.333 176.767C181.316 176.829 181.286 176.887 181.247 176.938C181.207 176.988 181.158 177.031 181.102 177.062C181.045 177.094 180.984 177.114 180.92 177.122C180.856 177.129 180.791 177.124 180.729 177.107C180.702 177.099 180.676 177.089 180.65 177.077L180.64 177.072C179.329 176.436 178.037 175.764 176.764 175.055C176.127 174.7 175.496 174.333 174.871 173.954C174.256 173.556 173.628 173.184 173.027 172.755ZM212.705 89.118C215.617 89.2269 218.532 89.1367 221.431 88.848C224.324 88.5886 227.197 88.1468 230.034 87.525C235.713 86.3585 241.174 84.3093 246.218 81.452C248.737 80.0397 251.112 78.3834 253.307 76.507C255.49 74.6141 257.49 72.5199 259.28 70.252C261.072 67.9738 262.633 65.5239 263.942 62.938C264.66 61.672 265.208 60.326 265.801 58.996C266.117 58.338 266.333 57.642 266.589 56.961L267.352 54.909C265.889 60.6039 263.357 65.969 259.891 70.719C256.339 75.4468 251.854 79.3949 246.714 82.319C241.567 85.1926 235.985 87.2045 230.188 88.275C224.432 89.401 218.543 89.6849 212.705 89.118Z" fill="black"/>
<path d="M271.308 67.24C270.848 66.25 270.448 65.239 270.022 64.237C269.615 63.2284 269.22 62.2154 268.838 61.198C268.075 59.1634 267.352 57.1157 266.667 55.055L267.372 55.329C264.045 57.131 260.681 58.865 257.188 60.367C260.327 58.222 263.593 56.309 266.896 54.464C266.952 54.4325 267.014 54.4124 267.079 54.4048C267.143 54.3973 267.208 54.4025 267.27 54.4202C267.332 54.4378 267.39 54.4676 267.441 54.5077C267.491 54.5478 267.534 54.5976 267.565 54.654C267.579 54.6783 267.59 54.7038 267.6 54.73L267.602 54.739C268.309 56.7924 268.976 58.859 269.605 60.939C269.918 61.979 270.219 63.0234 270.508 64.072C270.776 65.128 271.072 66.173 271.308 67.24Z" fill="black"/>
<path d="M220.127 112.083H213.847C213.295 112.083 212.847 112.531 212.847 113.083V129.263C212.847 129.815 213.295 130.263 213.847 130.263H220.127C220.679 130.263 221.127 129.815 221.127 129.263V113.083C221.127 112.531 220.679 112.083 220.127 112.083Z" fill="#A0616A"/>
<path d="M234.707 102.083H228.427C227.875 102.083 227.427 102.531 227.427 103.083V129.263C227.427 129.815 227.875 130.263 228.427 130.263H234.707C235.259 130.263 235.707 129.815 235.707 129.263V103.083C235.707 102.531 235.259 102.083 234.707 102.083Z" fill="#A0616A"/>
<path d="M249.287 92.083H243.007C242.455 92.083 242.007 92.5307 242.007 93.083V129.263C242.007 129.815 242.455 130.263 243.007 130.263H249.287C249.839 130.263 250.287 129.815 250.287 129.263V93.083C250.287 92.5307 249.839 92.083 249.287 92.083Z" fill="#A0616A"/>
<path d="M263.867 82.083H257.587C257.035 82.083 256.587 82.5307 256.587 83.083V129.263C256.587 129.815 257.035 130.263 257.587 130.263H263.867C264.419 130.263 264.867 129.815 264.867 129.263V83.083C264.867 82.5307 264.419 82.083 263.867 82.083Z" fill="#A0616A"/>
<path d="M278.447 72.083H272.167C271.615 72.083 271.167 72.5307 271.167 73.083V129.263C271.167 129.815 271.615 130.263 272.167 130.263H278.447C278.999 130.263 279.447 129.815 279.447 129.263V73.083C279.447 72.5307 278.999 72.083 278.447 72.083Z" fill="#A0616A"/>
<path d="M293.027 62.083H286.747C286.195 62.083 285.747 62.5307 285.747 63.083V129.263C285.747 129.815 286.195 130.263 286.747 130.263H293.027C293.579 130.263 294.027 129.815 294.027 129.263V63.083C294.027 62.5307 293.579 62.083 293.027 62.083Z" fill="#A0616A"/>
<path d="M214.935 202.363H241.139C241.139 207.954 239.351 213.398 236.036 217.9L214.935 202.363Z" fill="#FED44A"/>
<path d="M214.935 202.363L236.045 217.887C233.37 221.525 229.8 224.409 225.682 226.261C221.564 228.113 217.037 228.87 212.541 228.457C208.044 228.045 203.731 226.477 200.018 223.907C196.306 221.337 193.321 217.851 191.352 213.787L214.935 202.363Z" fill="#2CA68F"/>
<path d="M214.935 202.363L191.321 213.723C189.615 210.176 188.73 206.29 188.731 202.354C188.733 198.418 189.621 194.533 191.33 190.987C193.039 187.441 195.525 184.326 198.603 181.873C201.681 179.419 205.272 177.691 209.109 176.816C212.947 175.941 216.932 175.941 220.77 176.818C224.607 177.694 228.198 179.424 231.275 181.878C234.352 184.333 236.837 187.449 238.544 190.995C240.252 194.541 241.139 198.427 241.139 202.363H214.935ZM147.589 418.002H188.803V470.816C188.803 472.673 188.066 474.453 186.753 475.766C185.44 477.079 183.66 477.816 181.803 477.816H154.589C152.733 477.816 150.952 477.079 149.639 475.766C148.327 474.453 147.589 472.673 147.589 470.816V418.002Z" fill="#A0616A"/>
<path d="M177.883 356.145C177.883 356.145 157.311 295.838 235.372 277.521C235.372 277.521 228.115 286.961 229.806 304.715C229.806 304.715 220.718 308.449 216.279 316.833C216.279 316.833 227.269 311.69 229.806 314.649V320.356C229.806 320.356 222.62 320.567 219.026 322.681C219.026 322.681 228.538 323.103 228.538 324.161C228.538 325.219 216.843 353.68 177.883 356.145Z" fill="#2CA68F"/>
<path d="M226.917 287.384C222.57 290.831 218.466 294.573 214.632 298.583C210.775 302.564 207.13 306.745 203.714 311.11C196.864 319.819 190.942 329.218 186.043 339.156C181.157 349.08 177.403 359.521 174.85 370.284C172.36 381.04 171.067 392.038 170.992 403.078V403.086C170.99 403.351 170.882 403.605 170.693 403.791C170.504 403.977 170.249 404.08 169.984 404.078C169.719 404.076 169.465 403.969 169.279 403.779C169.093 403.59 168.99 403.335 168.992 403.07V403.055C169.234 391.884 170.71 380.775 173.392 369.928C176.129 359.114 180.073 348.642 185.149 338.709C190.22 328.798 196.311 319.444 203.323 310.798C206.813 306.475 210.528 302.339 214.454 298.408C218.351 294.452 222.515 290.769 226.917 287.384Z" fill="black"/>
<path d="M161.256 351.355C161.256 351.355 165.202 328.81 145.756 316.833C126.31 304.856 118.14 294.429 118.14 294.429C118.14 294.429 119.267 346.846 161.256 351.355ZM181.546 386.863C181.546 386.863 187.746 374.181 211.136 368.827C234.526 363.473 239.036 345.225 239.036 345.225C239.036 345.225 240.093 381.921 210.952 386.52C209.255 386.77 207.538 386.857 205.825 386.781C200.308 386.592 186.056 386.186 181.546 386.863Z" fill="#C1E5D9"/>
<path d="M161.585 392.217C161.585 392.217 159.049 356.709 139.862 353.609V359.527L133.075 351.355C133.075 351.355 127.439 346.282 112.222 346.564C112.222 346.564 116.686 363.449 122.273 371.544C130.446 383.386 142.469 387.708 161.585 392.217Z" fill="#2CA68F"/>
<path d="M120.958 352.482C125.485 356.005 129.919 359.645 134.262 363.402C138.611 367.149 142.872 371.002 147 375.002C151.159 378.99 155.094 383.206 158.786 387.63C160.635 389.872 162.336 392.231 163.88 394.693C165.53 397.201 166.696 399.995 167.32 402.931C167.343 403.06 167.34 403.193 167.312 403.321C167.284 403.45 167.23 403.571 167.155 403.679C167.08 403.786 166.984 403.878 166.874 403.949C166.763 404.02 166.639 404.068 166.51 404.091C166.381 404.114 166.248 404.111 166.12 404.083C165.991 404.055 165.87 404.001 165.762 403.926C165.655 403.851 165.563 403.755 165.492 403.645C165.421 403.534 165.373 403.41 165.35 403.281L165.346 403.255L165.338 403.202C164.825 400.503 163.821 397.921 162.375 395.585C160.94 393.144 159.348 390.798 157.61 388.562C154.078 384.072 150.3 379.781 146.293 375.71C142.3 371.609 138.162 367.642 133.93 363.776C129.697 359.911 125.373 356.146 120.958 352.482ZM170.402 403.019C170.567 401.409 170.924 399.825 171.465 398.299C173.009 393.763 175.896 389.803 179.742 386.944C182.28 385.088 185.116 383.679 188.128 382.778C191.085 381.885 194.06 381.144 197.051 380.466C203.018 379.083 209.051 377.996 214.769 375.876C217.636 374.841 220.38 373.49 222.95 371.85C225.498 370.161 227.866 368.216 230.017 366.044C227.919 368.28 225.598 370.296 223.089 372.058C220.542 373.783 217.812 375.22 214.949 376.343C209.231 378.64 203.19 379.898 197.288 381.437C191.421 383.03 185.304 384.37 180.654 388.135C178.323 389.956 176.388 392.234 174.969 394.83C174.257 396.117 173.68 397.474 173.247 398.88C172.802 400.254 172.518 401.675 172.4 403.114L172.395 403.186C172.374 403.449 172.25 403.693 172.05 403.864C171.851 404.036 171.591 404.122 171.328 404.104C171.065 404.085 170.82 403.964 170.646 403.766C170.473 403.568 170.384 403.309 170.4 403.046L170.402 403.019ZM128.003 311.056L145.997 330.067C147.492 331.657 149.007 333.224 150.486 334.834C151.198 335.668 151.951 336.47 152.631 337.332C153.291 338.208 153.984 339.062 154.618 339.958C157.152 343.552 159.289 347.409 160.993 351.463C164.358 359.586 166.612 368.125 167.695 376.85C168.845 385.547 169.346 394.317 169.195 403.088C169.194 403.219 169.166 403.349 169.114 403.47C169.063 403.591 168.988 403.7 168.894 403.792C168.8 403.884 168.689 403.956 168.567 404.005C168.445 404.054 168.315 404.078 168.184 404.077C168.052 404.075 167.922 404.048 167.802 403.996C167.681 403.944 167.572 403.869 167.48 403.776C167.388 403.682 167.316 403.57 167.267 403.449C167.218 403.327 167.194 403.196 167.195 403.065V403.045C167.511 394.365 167.181 385.674 166.207 377.043C165.304 368.408 163.24 359.934 160.071 351.85C158.468 347.821 156.433 343.977 154.002 340.386C153.394 339.49 152.726 338.636 152.092 337.758C151.436 336.895 150.709 336.09 150.022 335.252C148.581 333.622 147.092 332.022 145.629 330.406L128.003 311.056ZM147.589 418.002H188.803V437.05C188.803 435.107 188.42 433.183 187.677 431.388C186.933 429.593 185.844 427.962 184.47 426.588C183.096 425.215 181.465 424.125 179.67 423.381C177.875 422.638 175.951 422.255 174.008 422.255H162.383C160.44 422.255 158.516 422.638 156.721 423.381C154.926 424.125 153.295 425.215 151.921 426.588C150.548 427.962 149.458 429.593 148.714 431.388C147.971 433.183 147.588 435.107 147.588 437.05V418.002H147.589Z" fill="black"/>
<path d="M193.87 403.066H142.522C140.865 403.066 139.522 404.409 139.522 406.066V415.002C139.522 416.659 140.865 418.002 142.522 418.002H193.87C195.527 418.002 196.87 416.659 196.87 415.002V406.066C196.87 404.409 195.527 403.066 193.87 403.066Z" fill="#A0616A"/>
<path d="M75.6899 274.319H131.827V280.723H75.6899V274.319Z" fill="#FED44A"/>
<path d="M376.513 307.854H432.65V314.258H376.513V307.854Z" fill="#674CFB"/>
<path d="M140.178 58.881H196.315V65.285H140.178V58.881Z" fill="#A0616A"/>
<path d="M266.37 282.113C265.462 282.113 264.574 281.843 263.819 281.339C263.064 280.834 262.476 280.117 262.128 279.278C261.781 278.439 261.69 277.515 261.867 276.625C262.045 275.734 262.482 274.916 263.124 274.274C263.767 273.632 264.585 273.194 265.476 273.017C266.366 272.84 267.29 272.931 268.129 273.279C268.968 273.626 269.685 274.215 270.189 274.97C270.694 275.725 270.963 276.613 270.963 277.521C270.962 278.738 270.477 279.906 269.617 280.767C268.756 281.627 267.589 282.112 266.371 282.113H266.37ZM266.37 273.929C265.66 273.929 264.965 274.14 264.375 274.535C263.784 274.93 263.324 275.491 263.052 276.147C262.78 276.803 262.709 277.526 262.848 278.222C262.987 278.919 263.329 279.559 263.831 280.061C264.334 280.564 264.974 280.906 265.671 281.044C266.367 281.183 267.09 281.111 267.746 280.839C268.402 280.568 268.963 280.107 269.358 279.517C269.752 278.926 269.963 278.231 269.963 277.521C269.962 276.569 269.583 275.656 268.91 274.982C268.236 274.309 267.323 273.93 266.371 273.929H266.37ZM388.274 146.475C387.366 146.475 386.477 146.206 385.722 145.701C384.967 145.197 384.378 144.48 384.03 143.64C383.682 142.801 383.591 141.878 383.768 140.987C383.945 140.096 384.383 139.277 385.025 138.635C385.667 137.992 386.486 137.555 387.377 137.377C388.268 137.2 389.191 137.291 390.03 137.639C390.87 137.986 391.587 138.575 392.092 139.33C392.597 140.086 392.866 140.974 392.866 141.882C392.865 143.1 392.381 144.267 391.52 145.128C390.659 145.989 389.492 146.473 388.274 146.475ZM388.274 138.29C387.563 138.29 386.869 138.5 386.278 138.895C385.686 139.29 385.226 139.851 384.954 140.508C384.682 141.164 384.61 141.887 384.749 142.584C384.888 143.281 385.23 143.921 385.732 144.424C386.235 144.926 386.875 145.268 387.572 145.407C388.269 145.546 388.992 145.474 389.648 145.202C390.305 144.93 390.866 144.47 391.261 143.879C391.656 143.288 391.866 142.593 391.866 141.882C391.865 140.93 391.486 140.017 390.813 139.344C390.139 138.67 389.226 138.291 388.274 138.29Z" fill="black"/>
<path d="M87.883 192.355L80.563 190.355L85.883 184.035L87.883 192.355Z" fill="#A0616A"/>
<path d="M274.827 383.892L267.507 381.892L272.827 375.572L274.827 383.892ZM436.31 185.922L428.99 183.922L434.31 177.602L436.31 185.922Z" fill="#FED44A"/>
<path d="M413.538 78.412L406.218 76.412L411.538 70.092L413.538 78.412Z" fill="#674CFB"/>
<path d="M103.758 391.023L96.438 389.023L101.758 382.703L103.758 391.023Z" fill="#2CA68F"/>
</svg>
